<?xml version="1.0" encoding="UTF-8" standalone="no"?>
<svg
   height="24"
   viewBox="0 0 24 24"
   width="24"
   version="1.1"
   id="svg5"
   sodipodi:docname="rotate_feature.svg"
   inkscape:version="1.4.4 (dcaf3e7d9e, 2026-05-05)"
   xmlns:inkscape="http://www.inkscape.org/namespaces/inkscape"
   xmlns:sodipodi="http://sodipodi.sourceforge.net/DTD/sodipodi-0.dtd"
   xmlns="http://www.w3.org/2000/svg"
   xmlns:svg="http://www.w3.org/2000/svg">
  <defs
     id="defs5" />
  <sodipodi:namedview
     id="namedview5"
     pagecolor="#ffffff"
     bordercolor="#000000"
     borderopacity="0.25"
     inkscape:showpageshadow="2"
     inkscape:pageopacity="0.0"
     inkscape:pagecheckerboard="0"
     inkscape:deskcolor="#d1d1d1"
     inkscape:zoom="48.291667"
     inkscape:cx="12"
     inkscape:cy="12"
     inkscape:window-width="2560"
     inkscape:window-height="1412"
     inkscape:window-x="5120"
     inkscape:window-y="0"
     inkscape:window-maximized="1"
     inkscape:current-layer="svg5" />
  <path
     d="M 14.000001,18.999999 23,18.9904 c 0,0 0,0 0,-2 C 23,14 22,14 18.5,14 15,14 14,14 14,17 c 0,2 0,2 10e-7,1.999999 z"
     fill="#fcffff"
     fill-rule="evenodd"
     opacity="0.3"
     id="path2" />
  <g
     fill="none"
     stroke="param(fill)"
     stroke-width="1.5"
     id="g4"
     transform="matrix(2.4288176,0,0,2.4288176,-32.899046,-54.421043)"
     style="stroke-width:0.82344594;stroke-dasharray:none">
    <path
       d="m 21.498844,26.2375 c 0,-1.520773 -1.240344,-2.750705 -2.999423,-2.737371 C 16.601216,23.484759 15.5,24.747684 15.5,26.5 c 0,1.439852 1.50029,2.5 3,2.5"
       stroke-linecap="square"
       id="path3"
       stroke="param(fill)"
       style="stroke-width:0.82344594;stroke-dasharray:none" />
    <path
       d="m 18.58077,27 1.5,2 -1.5,2"
       stroke-linecap="round"
       stroke-linejoin="round"
       id="path4"
      stroke="param(fill)"
       style="stroke-width:0.82344594;stroke-dasharray:none" />
  </g>
</svg>
