<svg xmlns="http://www.w3.org/2000/svg" width="24" height="24" viewBox="0 0 24 24"><path fill="none" stroke-linejoin="round" stroke-width="1.5" d="M2 2h20v14H2Z"/><path d="M2 2.5h-.75V4h1.5V2.75h.75v-1.5H2Zm3 .25h1.5v-1.5H5Zm3 0h1.5v-1.5H8Zm3 0h1.5v-1.5H11Zm3 0h1.5v-1.5H14Zm3 0h1.5v-1.5H17Zm3 0h1.5v-1.5H20Zm1.25 1.75h1.5V3h-1.5zM1.25 7h1.5V5.5h-1.5zm20 .5h1.5V6h-1.5zm-20 2.5h1.5V8.5h-1.5zm20 .5h1.5V9h-1.5zm-20 2.5h1.5v-1.5h-1.5zm20 .5h1.5V12h-1.5zm-20 2.5h1.5v-1.5h-1.5zm19.986.744q.762.014 1.524.02c-.012-.588-.01-1.176-.01-1.765h-1.5c.006.582-.003 1.163-.014 1.744m-17.736.01H5v-1.5H3.5Zm3 0H8v-1.5H6.5Zm3 0H11v-1.5H9.5Zm3 0H14v-1.5h-1.5zm3 0H17v-1.5h-1.5zm3 0H20v-1.5h-1.5z" style="fill:param(fill)"/><path d="M4.737 5.533 11.171 21.5c.145.354.63.394.83.069l2.237-3.62 4.648 5.078a.467.467 0 0 0 .672.02l1.917-1.868a.467.467 0 0 0 .015-.655l-4.722-4.995 3.572-1.549a.467.467 0 0 0 .039-.839L5.117 4.921c-.246-.098-.502.306-.38.612Z" style="fill:param(outline);fill-rule:evenodd;stroke:param(fill);stroke-width:1;stroke-dasharray:none"/></svg>
